<?xml version="1.0" encoding="utf-8" ?>
<svg baseProfile="full" height="600" version="1.1" width="1200" xmlns="http://www.w3.org/2000/svg" xmlns:ev="http://www.w3.org/2001/xml-events" xmlns:xlink="http://www.w3.org/1999/xlink"><defs /><g fill="none" id="shapes"><line stroke="#59B840" stroke-width="1" x1="250" x2="380" y1="61" y2="1" /><line stroke="#59B840" stroke-width="1" x1="250" x2="380" y1="62" y2="2" /><line stroke="#59B840" stroke-width="1" x1="250" x2="380" y1="63" y2="3" /><line stroke="#59B840" stroke-width="1" x1="250" x2="380" y1="64" y2="4" /><line stroke="#59B840" stroke-width="1" x1="250" x2="380" y1="65" y2="5" /><line stroke="#59B840" stroke-width="1" x1="250" x2="380" y1="66" y2="6" /><line stroke="#59B840" stroke-width="1" x1="250" x2="380" y1="67" y2="7" /><line stroke="#59B840" stroke-width="1" x1="250" x2="380" y1="68" y2="8" /><line stroke="#59B840" stroke-width="1" x1="250" x2="380" y1="69" y2="9" /><line stroke="#59B840" stroke-width="1" x1="250" x2="380" y1="70" y2="10" /><line stroke="#59B840" stroke-width="1" x1="250" x2="380" y1="71" y2="11" /><line stroke="#59B840" stroke-width="1" x1="250" x2="380" y1="72" y2="12" /><line stroke="#59B840" stroke-width="1" x1="250" x2="380" y1="73" y2="13" /><line stroke="#59B840" stroke-width="1" x1="250" x2="380" y1="74" y2="14" /><line stroke="#59B840" stroke-width="1" x1="250" x2="380" y1="75" y2="15" /><line stroke="#59B840" stroke-width="1" x1="250" x2="380" y1="76" y2="16" /><line stroke="#59B840" stroke-width="1" x1="250" x2="380" y1="77" y2="17" /><line stroke="#59B840" stroke-width="1" x1="250" x2="380" y1="78" y2="18" /><line stroke="#59B840" stroke-width="1" x1="250" x2="380" y1="79" y2="19" /><line stroke="#59B840" stroke-width="1" x1="250" x2="380" y1="80" y2="20" /><line stroke="#59B840" stroke-width="1" x1="250" x2="380" y1="81" y2="21" /><line stroke="#59B840" stroke-width="1" x1="250" x2="380" y1="82" y2="22" /><line stroke="#59B840" stroke-width="1" x1="250" x2="380" y1="83" y2="23" /><line stroke="#59B840" stroke-width="1" x1="250" x2="380" y1="84" y2="24" /><line stroke="#59B840" stroke-width="1" x1="250" x2="380" y1="85" y2="25" /><line stroke="#59B840" stroke-width="1" x1="250" x2="380" y1="86" y2="26" /><line stroke="#59B840" stroke-width="1" x1="250" x2="380" y1="87" y2="27" /><line stroke="#59B840" stroke-width="1" x1="250" x2="380" y1="88" y2="28" /><line stroke="#59B840" stroke-width="1" x1="250" x2="380" y1="89" y2="29" /><line stroke="#59B840" stroke-width="1" x1="250" x2="380" y1="90" y2="30" /><line stroke="#59B840" stroke-width="1" x1="250" x2="380" y1="91" y2="31" /><line stroke="#59B840" stroke-width="1" x1="250" x2="380" y1="92" y2="32" /><line stroke="#59B840" stroke-width="1" x1="250" x2="380" y1="93" y2="33" /><line stroke="#59B840" stroke-width="1" x1="250" x2="380" y1="94" y2="34" /><line stroke="#59B840" stroke-width="1" x1="250" x2="380" y1="95" y2="35" /><line stroke="#59B840" stroke-width="1" x1="250" x2="380" y1="96" y2="36" /><line stroke="#59B840" stroke-width="1" x1="250" x2="380" y1="97" y2="37" /><line stroke="#59B840" stroke-width="1" x1="250" x2="380" y1="98" y2="38" /><line stroke="#59B840" stroke-width="1" x1="250" x2="380" y1="99" y2="39" /><line stroke="#59B840" stroke-width="1" x1="250" x2="380" y1="100" y2="40" /><line stroke="#59B840" stroke-width="1" x1="250" x2="380" y1="101" y2="41" /><line stroke="#59B840" stroke-width="1" x1="250" x2="380" y1="102" y2="42" /><line stroke="#59B840" stroke-width="1" x1="250" x2="380" y1="103" y2="43" /><line stroke="#59B840" stroke-width="1" x1="250" x2="380" y1="104" y2="44" /><line stroke="#59B840" stroke-width="1" x1="250" x2="380" y1="105" y2="45" /><line stroke="#59B840" stroke-width="1" x1="250" x2="380" y1="106" y2="46" /><line stroke="#59B840" stroke-width="1" x1="250" x2="380" y1="107" y2="47" /><line stroke="#59B840" stroke-width="1" x1="250" x2="380" y1="108" y2="48" /><line stroke="#59B840" stroke-width="1" x1="250" x2="380" y1="109" y2="49" /><line stroke="#59B840" stroke-width="1" x1="250" x2="380" y1="110" y2="50" /><line stroke="#59B840" stroke-width="1" x1="250" x2="380" y1="111" y2="51" /><line stroke="#59B840" stroke-width="1" x1="250" x2="380" y1="112" y2="52" /><line stroke="#59B840" stroke-width="1" x1="250" x2="380" y1="113" y2="53" /><line stroke="#59B840" stroke-width="1" x1="250" x2="380" y1="114" y2="54" /><line stroke="#59B840" stroke-width="1" x1="250" x2="380" y1="115" y2="55" /><line stroke="#59B840" stroke-width="1" x1="250" x2="380" y1="116" y2="56" /><line stroke="#59B840" stroke-width="1" x1="250" x2="380" y1="117" y2="57" /><line stroke="#59B840" stroke-width="1" x1="250" x2="380" y1="118" y2="58" /><line stroke="#59B840" stroke-width="1" x1="250" x2="380" y1="119" y2="59" /><line stroke="#59B840" stroke-width="1" x1="250" x2="380" y1="120" y2="60" /><line stroke="#59B840" stroke-width="1" x1="250" x2="380" y1="121" y2="61" /><line stroke="#59B840" stroke-width="1" x1="250" x2="380" y1="122" y2="62" /><line stroke="#59B840" stroke-width="1" x1="250" x2="380" y1="123" y2="63" /><line stroke="#59B840" stroke-width="1" x1="250" x2="380" y1="124" y2="64" /><line stroke="#59B840" stroke-width="1" x1="250" x2="380" y1="125" y2="65" /><line stroke="#59B840" stroke-width="1" x1="250" x2="380" y1="126" y2="66" /><line stroke="#59B840" stroke-width="1" x1="250" x2="380" y1="127" y2="67" /><line stroke="#59B840" stroke-width="1" x1="250" x2="380" y1="128" y2="68" /><line stroke="#59B840" stroke-width="1" x1="250" x2="380" y1="129" y2="69" /><line stroke="#59B840" stroke-width="1" x1="250" x2="380" y1="130" y2="70" /><line stroke="#59B840" stroke-width="1" x1="250" x2="380" y1="131" y2="71" /><line stroke="#59B840" stroke-width="1" x1="250" x2="380" y1="132" y2="72" /><line stroke="#59B840" stroke-width="1" x1="250" x2="380" y1="133" y2="73" /><line stroke="#59B840" stroke-width="1" x1="250" x2="380" y1="134" y2="74" /><line stroke="#59B840" stroke-width="1" x1="250" x2="380" y1="135" y2="75" /><line stroke="#59B840" stroke-width="1" x1="250" x2="380" y1="136" y2="76" /><line stroke="#59B840" stroke-width="1" x1="250" x2="380" y1="137" y2="77" /><line stroke="#59B840" stroke-width="1" x1="250" x2="380" y1="138" y2="78" /><line stroke="#59B840" stroke-width="1" x1="250" x2="380" y1="139" y2="79" /><line stroke="#59B840" stroke-width="1" x1="250" x2="380" y1="140" y2="80" /><line stroke="#59B840" stroke-width="1" x1="250" x2="380" y1="141" y2="81" /><line stroke="#59B840" stroke-width="1" x1="250" x2="380" y1="142" y2="82" /><line stroke="#59B840" stroke-width="1" x1="250" x2="380" y1="143" y2="83" /><line stroke="#59B840" stroke-width="1" x1="250" x2="380" y1="144" y2="84" /><line stroke="#59B840" stroke-width="1" x1="250" x2="380" y1="145" y2="85" /><line stroke="#59B840" stroke-width="1" x1="250" x2="380" y1="146" y2="86" /><line stroke="#59B840" stroke-width="1" x1="250" x2="380" y1="147" y2="87" /><line stroke="#59B840" stroke-width="1" x1="250" x2="380" y1="148" y2="88" /><line stroke="#59B840" stroke-width="1" x1="250" x2="380" y1="149" y2="89" /><line stroke="#59B840" stroke-width="1" x1="250" x2="380" y1="150" y2="90" /><line stroke="#59B840" stroke-width="1" x1="250" x2="380" y1="151" y2="91" /><line stroke="#59B840" stroke-width="1" x1="250" x2="380" y1="152" y2="92" /><line stroke="#59B840" stroke-width="1" x1="250" x2="380" y1="153" y2="93" /><line stroke="#59B840" stroke-width="1" x1="250" x2="380" y1="154" y2="94" /><line stroke="#59B840" stroke-width="1" x1="250" x2="380" y1="155" y2="95" /><line stroke="#59B840" stroke-width="1" x1="250" x2="380" y1="156" y2="96" /><line stroke="#59B840" stroke-width="1" x1="250" x2="380" y1="157" y2="97" /><line stroke="#59B840" stroke-width="1" x1="250" x2="380" y1="158" y2="98" /><line stroke="#59B840" stroke-width="1" x1="250" x2="380" y1="159" y2="99" /><line stroke="#59B840" stroke-width="1" x1="250" x2="380" y1="160" y2="100" /><line stroke="#59B840" stroke-width="1" x1="250" x2="380" y1="161" y2="101" /><line stroke="#59B840" stroke-width="1" x1="250" x2="380" y1="162" y2="102" /><line stroke="#59B840" stroke-width="1" x1="250" x2="380" y1="163" y2="103" /><line stroke="#59B840" stroke-width="1" x1="250" x2="380" y1="164" y2="104" /><line stroke="#59B840" stroke-width="1" x1="250" x2="380" y1="165" y2="105" /><line stroke="#59B840" stroke-width="1" x1="250" x2="380" y1="166" y2="106" /><line stroke="#59B840" stroke-width="1" x1="250" x2="380" y1="167" y2="107" /><line stroke="#59B840" stroke-width="1" x1="250" x2="380" y1="168" y2="108" /><line stroke="#59B840" stroke-width="1" x1="250" x2="380" y1="169" y2="109" /><line stroke="#59B840" stroke-width="1" x1="250" x2="380" y1="170" y2="110" /><line stroke="#59B840" stroke-width="1" x1="250" x2="380" y1="171" y2="111" /><line stroke="#59B840" stroke-width="1" x1="250" x2="380" y1="172" y2="112" /><line stroke="#59B840" stroke-width="1" x1="250" x2="380" y1="173" y2="113" /><line stroke="#59B840" stroke-width="1" x1="250" x2="380" y1="174" y2="114" /><line stroke="#59B840" stroke-width="1" x1="250" x2="380" y1="175" y2="115" /><line stroke="#59B840" stroke-width="1" x1="250" x2="380" y1="176" y2="116" /><line stroke="#59B840" stroke-width="1" x1="250" x2="380" y1="177" y2="117" /><line stroke="#59B840" stroke-width="1" x1="250" x2="380" y1="178" y2="118" /><line stroke="#59B840" stroke-width="1" x1="250" x2="380" y1="179" y2="119" /><line stroke="#59B840" stroke-width="1" x1="250" x2="380" y1="180" y2="120" /><line stroke="#59B840" stroke-width="1" x1="250" x2="380" y1="181" y2="121" /><line stroke="#59B840" stroke-width="1" x1="250" x2="380" y1="182" y2="122" /><line stroke="#59B840" stroke-width="1" x1="250" x2="380" y1="183" y2="123" /><line stroke="#59B840" stroke-width="1" x1="250" x2="380" y1="184" y2="124" /><line stroke="#59B840" stroke-width="1" x1="250" x2="380" y1="185" y2="125" /><line stroke="#59B840" stroke-width="1" x1="250" x2="380" y1="186" y2="126" /><line stroke="#59B840" stroke-width="1" x1="250" x2="380" y1="187" y2="127" /><line stroke="#59B840" stroke-width="1" x1="250" x2="380" y1="188" y2="128" /><line stroke="#59B840" stroke-width="1" x1="250" x2="380" y1="189" y2="129" /><line stroke="#59B840" stroke-width="1" x1="250" x2="380" y1="190" y2="130" /><line stroke="#59B840" stroke-width="1" x1="250" x2="380" y1="191" y2="131" /><line stroke="#59B840" stroke-width="1" x1="250" x2="380" y1="192" y2="132" /><line stroke="#59B840" stroke-width="1" x1="250" x2="380" y1="193" y2="133" /><line stroke="#59B840" stroke-width="1" x1="250" x2="380" y1="194" y2="134" /><line stroke="#59B840" stroke-width="1" x1="250" x2="380" y1="195" y2="135" /><line stroke="#59B840" stroke-width="1" x1="250" x2="380" y1="196" y2="136" /><line stroke="#59B840" stroke-width="1" x1="250" x2="380" y1="197" y2="137" /><line stroke="#59B840" stroke-width="1" x1="250" x2="380" y1="198" y2="138" /><line stroke="#59B840" stroke-width="1" x1="250" x2="380" y1="199" y2="139" /><line stroke="#59B840" stroke-width="1" x1="250" x2="380" y1="200" y2="140" /><line stroke="#59B840" stroke-width="1" x1="250" x2="380" y1="201" y2="141" /><line stroke="#59B840" stroke-width="1" x1="250" x2="380" y1="202" y2="142" /><line stroke="#59B840" stroke-width="1" x1="250" x2="380" y1="203" y2="143" /><line stroke="#59B840" stroke-width="1" x1="250" x2="380" y1="204" y2="144" /><line stroke="#59B840" stroke-width="1" x1="250" x2="380" y1="205" y2="145" /><line stroke="#59B840" stroke-width="1" x1="250" x2="380" y1="206" y2="146" /><line stroke="#59B840" stroke-width="1" x1="250" x2="380" y1="207" y2="147" /><line stroke="#59B840" stroke-width="1" x1="250" x2="380" y1="208" y2="148" /><line stroke="#59B840" stroke-width="1" x1="250" x2="380" y1="209" y2="149" /><line stroke="#1A7906" stroke-width="1" x1="380" x2="420" y1="1" y2="61" /><line stroke="#1A7906" stroke-width="1" x1="380" x2="420" y1="2" y2="62" /><line stroke="#1A7906" stroke-width="1" x1="380" x2="420" y1="3" y2="63" /><line stroke="#1A7906" stroke-width="1" x1="380" x2="420" y1="4" y2="64" /><line stroke="#1A7906" stroke-width="1" x1="380" x2="420" y1="5" y2="65" /><line stroke="#1A7906" stroke-width="1" x1="380" x2="420" y1="6" y2="66" /><line stroke="#1A7906" stroke-width="1" x1="380" x2="420" y1="7" y2="67" /><line stroke="#1A7906" stroke-width="1" x1="380" x2="420" y1="8" y2="68" /><line stroke="#1A7906" stroke-width="1" x1="380" x2="420" y1="9" y2="69" /><line stroke="#1A7906" stroke-width="1" x1="380" x2="420" y1="10" y2="70" /><line stroke="#1A7906" stroke-width="1" x1="380" x2="420" y1="11" y2="71" /><line stroke="#1A7906" stroke-width="1" x1="380" x2="420" y1="12" y2="72" /><line stroke="#1A7906" stroke-width="1" x1="380" x2="420" y1="13" y2="73" /><line stroke="#1A7906" stroke-width="1" x1="380" x2="420" y1="14" y2="74" /><line stroke="#1A7906" stroke-width="1" x1="380" x2="420" y1="15" y2="75" /><line stroke="#1A7906" stroke-width="1" x1="380" x2="420" y1="16" y2="76" /><line stroke="#1A7906" stroke-width="1" x1="380" x2="420" y1="17" y2="77" /><line stroke="#1A7906" stroke-width="1" x1="380" x2="420" y1="18" y2="78" /><line stroke="#1A7906" stroke-width="1" x1="380" x2="420" y1="19" y2="79" /><line stroke="#1A7906" stroke-width="1" x1="380" x2="420" y1="20" y2="80" /><line stroke="#1A7906" stroke-width="1" x1="380" x2="420" y1="21" y2="81" /><line stroke="#1A7906" stroke-width="1" x1="380" x2="420" y1="22" y2="82" /><line stroke="#1A7906" stroke-width="1" x1="380" x2="420" y1="23" y2="83" /><line stroke="#1A7906" stroke-width="1" x1="380" x2="420" y1="24" y2="84" /><line stroke="#1A7906" stroke-width="1" x1="380" x2="420" y1="25" y2="85" /><line stroke="#1A7906" stroke-width="1" x1="380" x2="420" y1="26" y2="86" /><line stroke="#1A7906" stroke-width="1" x1="380" x2="420" y1="27" y2="87" /><line stroke="#1A7906" stroke-width="1" x1="380" x2="420" y1="28" y2="88" /><line stroke="#1A7906" stroke-width="1" x1="380" x2="420" y1="29" y2="89" /><line stroke="#1A7906" stroke-width="1" x1="380" x2="420" y1="30" y2="90" /><line stroke="#1A7906" stroke-width="1" x1="380" x2="420" y1="31" y2="91" /><line stroke="#1A7906" stroke-width="1" x1="380" x2="420" y1="32" y2="92" /><line stroke="#1A7906" stroke-width="1" x1="380" x2="420" y1="33" y2="93" /><line stroke="#1A7906" stroke-width="1" x1="380" x2="420" y1="34" y2="94" /><line stroke="#1A7906" stroke-width="1" x1="380" x2="420" y1="35" y2="95" /><line stroke="#1A7906" stroke-width="1" x1="380" x2="420" y1="36" y2="96" /><line stroke="#1A7906" stroke-width="1" x1="380" x2="420" y1="37" y2="97" /><line stroke="#1A7906" stroke-width="1" x1="380" x2="420" y1="38" y2="98" /><line stroke="#1A7906" stroke-width="1" x1="380" x2="420" y1="39" y2="99" /><line stroke="#1A7906" stroke-width="1" x1="380" x2="420" y1="40" y2="100" /><line stroke="#1A7906" stroke-width="1" x1="380" x2="420" y1="41" y2="101" /><line stroke="#1A7906" stroke-width="1" x1="380" x2="420" y1="42" y2="102" /><line stroke="#1A7906" stroke-width="1" x1="380" x2="420" y1="43" y2="103" /><line stroke="#1A7906" stroke-width="1" x1="380" x2="420" y1="44" y2="104" /><line stroke="#1A7906" stroke-width="1" x1="380" x2="420" y1="45" y2="105" /><line stroke="#1A7906" stroke-width="1" x1="380" x2="420" y1="46" y2="106" /><line stroke="#1A7906" stroke-width="1" x1="380" x2="420" y1="47" y2="107" /><line stroke="#1A7906" stroke-width="1" x1="380" x2="420" y1="48" y2="108" /><line stroke="#1A7906" stroke-width="1" x1="380" x2="420" y1="49" y2="109" /><line stroke="#1A7906" stroke-width="1" x1="380" x2="420" y1="50" y2="110" /><line stroke="#1A7906" stroke-width="1" x1="380" x2="420" y1="51" y2="111" /><line stroke="#1A7906" stroke-width="1" x1="380" x2="420" y1="52" y2="112" /><line stroke="#1A7906" stroke-width="1" x1="380" x2="420" y1="53" y2="113" /><line stroke="#1A7906" stroke-width="1" x1="380" x2="420" y1="54" y2="114" /><line stroke="#1A7906" stroke-width="1" x1="380" x2="420" y1="55" y2="115" /><line stroke="#1A7906" stroke-width="1" x1="380" x2="420" y1="56" y2="116" /><line stroke="#1A7906" stroke-width="1" x1="380" x2="420" y1="57" y2="117" /><line stroke="#1A7906" stroke-width="1" x1="380" x2="420" y1="58" y2="118" /><line stroke="#1A7906" stroke-width="1" x1="380" x2="420" y1="59" y2="119" /><line stroke="#1A7906" stroke-width="1" x1="380" x2="420" y1="60" y2="120" /><line stroke="#1A7906" stroke-width="1" x1="380" x2="420" y1="61" y2="121" /><line stroke="#1A7906" stroke-width="1" x1="380" x2="420" y1="62" y2="122" /><line stroke="#1A7906" stroke-width="1" x1="380" x2="420" y1="63" y2="123" /><line stroke="#1A7906" stroke-width="1" x1="380" x2="420" y1="64" y2="124" /><line stroke="#1A7906" stroke-width="1" x1="380" x2="420" y1="65" y2="125" /><line stroke="#1A7906" stroke-width="1" x1="380" x2="420" y1="66" y2="126" /><line stroke="#1A7906" stroke-width="1" x1="380" x2="420" y1="67" y2="127" /><line stroke="#1A7906" stroke-width="1" x1="380" x2="420" y1="68" y2="128" /><line stroke="#1A7906" stroke-width="1" x1="380" x2="420" y1="69" y2="129" /><line stroke="#1A7906" stroke-width="1" x1="380" x2="420" y1="70" y2="130" /><line stroke="#1A7906" stroke-width="1" x1="380" x2="420" y1="71" y2="131" /><line stroke="#1A7906" stroke-width="1" x1="380" x2="420" y1="72" y2="132" /><line stroke="#1A7906" stroke-width="1" x1="380" x2="420" y1="73" y2="133" /><line stroke="#1A7906" stroke-width="1" x1="380" x2="420" y1="74" y2="134" /><line stroke="#1A7906" stroke-width="1" x1="380" x2="420" y1="75" y2="135" /><line stroke="#1A7906" stroke-width="1" x1="380" x2="420" y1="76" y2="136" /><line stroke="#1A7906" stroke-width="1" x1="380" x2="420" y1="77" y2="137" /><line stroke="#1A7906" stroke-width="1" x1="380" x2="420" y1="78" y2="138" /><line stroke="#1A7906" stroke-width="1" x1="380" x2="420" y1="79" y2="139" /><line stroke="#1A7906" stroke-width="1" x1="380" x2="420" y1="80" y2="140" /><line stroke="#1A7906" stroke-width="1" x1="380" x2="420" y1="81" y2="141" /><line stroke="#1A7906" stroke-width="1" x1="380" x2="420" y1="82" y2="142" /><line stroke="#1A7906" stroke-width="1" x1="380" x2="420" y1="83" y2="143" /><line stroke="#1A7906" stroke-width="1" x1="380" x2="420" y1="84" y2="144" /><line stroke="#1A7906" stroke-width="1" x1="380" x2="420" y1="85" y2="145" /><line stroke="#1A7906" stroke-width="1" x1="380" x2="420" y1="86" y2="146" /><line stroke="#1A7906" stroke-width="1" x1="380" x2="420" y1="87" y2="147" /><line stroke="#1A7906" stroke-width="1" x1="380" x2="420" y1="88" y2="148" /><line stroke="#1A7906" stroke-width="1" x1="380" x2="420" y1="89" y2="149" /><line stroke="#1A7906" stroke-width="1" x1="380" x2="420" y1="90" y2="150" /><line stroke="#1A7906" stroke-width="1" x1="380" x2="420" y1="91" y2="151" /><line stroke="#1A7906" stroke-width="1" x1="380" x2="420" y1="92" y2="152" /><line stroke="#1A7906" stroke-width="1" x1="380" x2="420" y1="93" y2="153" /><line stroke="#1A7906" stroke-width="1" x1="380" x2="420" y1="94" y2="154" /><line stroke="#1A7906" stroke-width="1" x1="380" x2="420" y1="95" y2="155" /><line stroke="#1A7906" stroke-width="1" x1="380" x2="420" y1="96" y2="156" /><line stroke="#1A7906" stroke-width="1" x1="380" x2="420" y1="97" y2="157" /><line stroke="#1A7906" stroke-width="1" x1="380" x2="420" y1="98" y2="158" /><line stroke="#1A7906" stroke-width="1" x1="380" x2="420" y1="99" y2="159" /><line stroke="#1A7906" stroke-width="1" x1="380" x2="420" y1="100" y2="160" /><line stroke="#1A7906" stroke-width="1" x1="380" x2="420" y1="101" y2="161" /><line stroke="#1A7906" stroke-width="1" x1="380" x2="420" y1="102" y2="162" /><line stroke="#1A7906" stroke-width="1" x1="380" x2="420" y1="103" y2="163" /><line stroke="#1A7906" stroke-width="1" x1="380" x2="420" y1="104" y2="164" /><line stroke="#1A7906" stroke-width="1" x1="380" x2="420" y1="105" y2="165" /><line stroke="#1A7906" stroke-width="1" x1="380" x2="420" y1="106" y2="166" /><line stroke="#1A7906" stroke-width="1" x1="380" x2="420" y1="107" y2="167" /><line stroke="#1A7906" stroke-width="1" x1="380" x2="420" y1="108" y2="168" /><line stroke="#1A7906" stroke-width="1" x1="380" x2="420" y1="109" y2="169" /><line stroke="#1A7906" stroke-width="1" x1="380" x2="420" y1="110" y2="170" /><line stroke="#1A7906" stroke-width="1" x1="380" x2="420" y1="111" y2="171" /><line stroke="#1A7906" stroke-width="1" x1="380" x2="420" y1="112" y2="172" /><line stroke="#1A7906" stroke-width="1" x1="380" x2="420" y1="113" y2="173" /><line stroke="#1A7906" stroke-width="1" x1="380" x2="420" y1="114" y2="174" /><line stroke="#1A7906" stroke-width="1" x1="380" x2="420" y1="115" y2="175" /><line stroke="#1A7906" stroke-width="1" x1="380" x2="420" y1="116" y2="176" /><line stroke="#1A7906" stroke-width="1" x1="380" x2="420" y1="117" y2="177" /><line stroke="#1A7906" stroke-width="1" x1="380" x2="420" y1="118" y2="178" /><line stroke="#1A7906" stroke-width="1" x1="380" x2="420" y1="119" y2="179" /><line stroke="#1A7906" stroke-width="1" x1="380" x2="420" y1="120" y2="180" /><line stroke="#1A7906" stroke-width="1" x1="380" x2="420" y1="121" y2="181" /><line stroke="#1A7906" stroke-width="1" x1="380" x2="420" y1="122" y2="182" /><line stroke="#1A7906" stroke-width="1" x1="380" x2="420" y1="123" y2="183" /><line stroke="#1A7906" stroke-width="1" x1="380" x2="420" y1="124" y2="184" /><line stroke="#1A7906" stroke-width="1" x1="380" x2="420" y1="125" y2="185" /><line stroke="#1A7906" stroke-width="1" x1="380" x2="420" y1="126" y2="186" /><line stroke="#1A7906" stroke-width="1" x1="380" x2="420" y1="127" y2="187" /><line stroke="#1A7906" stroke-width="1" x1="380" x2="420" y1="128" y2="188" /><line stroke="#1A7906" stroke-width="1" x1="380" x2="420" y1="129" y2="189" /><line stroke="#1A7906" stroke-width="1" x1="380" x2="420" y1="130" y2="190" /><line stroke="#1A7906" stroke-width="1" x1="380" x2="420" y1="131" y2="191" /><line stroke="#1A7906" stroke-width="1" x1="380" x2="420" y1="132" y2="192" /><line stroke="#1A7906" stroke-width="1" x1="380" x2="420" y1="133" y2="193" /><line stroke="#1A7906" stroke-width="1" x1="380" x2="420" y1="134" y2="194" /><line stroke="#1A7906" stroke-width="1" x1="380" x2="420" y1="135" y2="195" /><line stroke="#1A7906" stroke-width="1" x1="380" x2="420" y1="136" y2="196" /><line stroke="#1A7906" stroke-width="1" x1="380" x2="420" y1="137" y2="197" /><line stroke="#1A7906" stroke-width="1" x1="380" x2="420" y1="138" y2="198" /><line stroke="#1A7906" stroke-width="1" x1="380" x2="420" y1="139" y2="199" /><line stroke="#1A7906" stroke-width="1" x1="380" x2="420" y1="140" y2="200" /><line stroke="#1A7906" stroke-width="1" x1="380" x2="420" y1="141" y2="201" /><line stroke="#1A7906" stroke-width="1" x1="380" x2="420" y1="142" y2="202" /><line stroke="#1A7906" stroke-width="1" x1="380" x2="420" y1="143" y2="203" /><line stroke="#1A7906" stroke-width="1" x1="380" x2="420" y1="144" y2="204" /><line stroke="#1A7906" stroke-width="1" x1="380" x2="420" y1="145" y2="205" /><line stroke="#1A7906" stroke-width="1" x1="380" x2="420" y1="146" y2="206" /><line stroke="#1A7906" stroke-width="1" x1="380" x2="420" y1="147" y2="207" /><line stroke="#1A7906" stroke-width="1" x1="380" x2="420" y1="148" y2="208" /><line stroke="#1A7906" stroke-width="1" x1="380" x2="420" y1="149" y2="209" /><rect fill="#59B840" height="250" width="950" x="420" y="60" /><text fill="#fff" font-family="Helvetica" font-size="160" x="450" y="240">标题</text><line stroke="#fff" stroke-width="4" x1="440" x2="1180" y1="280" y2="280" /></g></svg>