<?xml version="1.0" encoding="utf-8"?>
<!-- Generator: Adobe Illustrator 19.0.0, SVG Export Plug-In . SVG Version: 6.00 Build 0)  -->
<svg version="1.1" id="Layer_2" xmlns="http://www.w3.org/2000/svg" xmlns:xlink="http://www.w3.org/1999/xlink" x="0px" y="0px"
	 viewBox="0 0 595.3 841.9" style="enable-background:new 0 0 595.3 841.9;" xml:space="preserve">
<style type="text/css">
	.st0{fill:none;stroke:#000000;stroke-miterlimit:10;}
</style>
<path id="XMLID_1_" class="st0" d="M301.3,3.7c-0.3,0-0.7,2.2-2,5.7c-1,2.5-1.9,4.3-2.8,6c-11.6,21.5-19.3,32.8-19.3,32.8
	c-9.9,14.4,6.6-8.4-32.2,49.8c-20.4,30.7-27.1,40.3-31.9,47.6c-41.4,63.1-53,130.7-54.7,140.7c-3.4,20.5-8.3,51.7-2.3,91.9
	c8.4,56.6,33.2,95.8,49.4,121.3c10.8,17,22.9,32.8,39,48c20.8,19.6,49,39.8,55.5,34.2c3.7-3.3-3.9-11.6-4.8-34.4
	c-0.5-13.7,1.7-25.7,2.8-31c1-5.3,1-3.9,6-24.2c6.3-25.8,3.8-18.2,5.2-23c2.9-10,5.4-15.3,3.2-22c-1.2-3.8-3.4-6.2-4.8-7.8
	c-20-22.3-32.5-31.1-41.5-47.8c-2.8-5.1-4.4-9.4-6.9-16.2c-4.8-12.9-7.2-23.5-9.1-32.1c-0.4-1.6-2.5-11.3-3.9-21.9
	c-3.6-25.3-2.8-50.1-2.1-64.6c0,0,2.8-54.9,17.9-117.9c2.9-12,6-25,11.8-41.2c3.7-10.3,8.5-22.7,8.5-22.7
	c4.9-12.5,6.4-15.6,9.2-24.2c2.7-8.2,4.3-14.5,5.5-19c0.3-1.2,1.5-5.8,2.7-11.8c0.4-2.1,0.9-5,1.3-8.8
	C301.5,8.2,301.8,3.7,301.3,3.7z"/>
<path id="XMLID_5_" class="st0" d="M265.1,211.1c11.8,15,20.5,28.3,26.6,38.2c12.8,20.9,30.2,53.6,43,96.3
	c5.5,18.3,8.4,32.7,9.3,37.7c5.4,27.6,14.4,76.8,0.7,134.3c-5.5,23-11.2,47-30.7,71c-5.9,7.3-20.6,25.1-45.3,37.7
	c-13.2,6.7-18.2,6.3-43.3,18c-17.8,8.3-26.8,12.6-34,20c-13.9,14.3-17.7,31.5-19.2,38.7c-2.7,12.9-1.7,22.8-0.4,36.3
	c2.3,23.2,7,28.8,7.7,47c0.5,14.2-1.8,25.6-3.7,32.7c-1.4,2.3-3.3,6-4.3,11c-1,5.1-1.6,8.1-0.3,9.7c3,3.7,15.9-1.5,46.3-16.7
	c19.6-9.8,29.4-14.7,47.3-24.7c1.5-0.8,24.1-13,34.9-20.3c19.8-13.3,64.5-44.4,94.7-99.7c17.8-32.5,22.9-61,26.7-82.7
	c17.3-100.1-17.5-182.5-34.3-222.7c-18.2-43.2-37.5-71.3-42.7-78.7C316.6,255.3,287,228.3,265.1,211.1z"/>
</svg>
