<?xml version="1.0" encoding="UTF-8" standalone="no"?>
<svg width="80px" height="241px" viewBox="0 0 80 241" version="1.1" xmlns="http://www.w3.org/2000/svg" xmlns:xlink="http://www.w3.org/1999/xlink">
    <!-- Generator: Sketch 3.7 (28169) - http://www.bohemiancoding.com/sketch -->
    <title>logo 2</title>
    <desc>Created with Sketch.</desc>
    <defs></defs>
    <g id="Page-1" stroke="none" stroke-width="1" fill="none" fill-rule="evenodd">
        <g id="logo" transform="translate(1.000000, 0.000000)" stroke="#E80000" fill="#E80000">
            <path d="M42.6,0.5 C42.5,0.5 42.4,1.1 42,2.1 C41.7,2.8 41.5,3.3 41.2,3.8 C37.9,9.9 35.7,13.2 35.7,13.2 C32.9,17.3 37.6,10.8 26.5,27.4 C20.7,36.2 18.8,38.9 17.4,41 C5.6,59 2.2,78.4 1.8,81.2 C0.8,87.1 -0.6,96 1.1,107.5 C3.5,123.7 10.6,134.9 15.2,142.2 C18.3,147.1 21.7,151.6 26.3,155.9 C32.2,161.5 40.3,167.3 42.2,165.7 C43.3,164.8 41.1,162.4 40.8,155.9 C40.7,152 41.3,148.6 41.6,147 C41.9,145.5 41.9,145.9 43.3,140.1 C45.1,132.7 44.4,134.9 44.8,133.5 C45.6,130.6 46.3,129.1 45.7,127.2 C45.4,126.1 44.7,125.4 44.3,125 C38.6,118.6 35,116.1 32.4,111.3 C31.6,109.8 31.1,108.6 30.4,106.7 C29,103 28.3,100 27.8,97.5 C27.7,97 27.1,94.3 26.7,91.2 C25.7,84 25.9,76.9 26.1,72.7 C26.1,72.7 26.9,57 31.2,39 C32,35.6 32.9,31.9 34.6,27.2 C35.7,24.3 37,20.7 37,20.7 C38.4,17.1 38.8,16.2 39.6,13.8 C40.4,11.5 40.8,9.7 41.2,8.4 C41.3,8.1 41.6,6.7 42,5 C42.1,4.4 42.3,3.6 42.4,2.5 C42.6,1.8 42.7,0.5 42.6,0.5 L42.6,0.5 Z" id="XMLID_1_"></path>
            <path d="M32.2,59.8 C35.6,64.1 38.1,67.9 39.8,70.7 C43.5,76.7 48.4,86 52.1,98.2 C53.7,103.4 54.5,107.5 54.8,109 C56.3,116.9 58.9,131 55,147.4 C53.4,154 51.8,160.8 46.2,167.7 C44.5,169.8 40.3,174.9 33.3,178.5 C29.5,180.4 28.1,180.3 20.9,183.6 C15.8,186 13.2,187.2 11.2,189.3 C7.2,193.4 6.1,198.3 5.7,200.4 C4.9,204.1 5.2,206.9 5.6,210.8 C6.3,217.4 7.6,219 7.8,224.2 C7.9,228.3 7.3,231.5 6.7,233.5 C6.3,234.2 5.8,235.2 5.5,236.6 C5.2,238.1 5,238.9 5.4,239.4 C6.3,240.5 9.9,239 18.6,234.6 C24.2,231.8 27,230.4 32.1,227.5 C32.5,227.3 39,223.8 42.1,221.7 C47.8,217.9 60.5,209 69.2,193.2 C74.3,183.9 75.7,175.8 76.8,169.6 C81.7,141 71.8,117.4 67,105.9 C61.8,93.6 56.3,85.5 54.8,83.4 C47,72.4 38.5,64.7 32.2,59.8 L32.2,59.8 Z" id="XMLID_5_"></path>
        </g>
    </g>
</svg>